:version 1.10
:name ASF
:units
  mass 1
  length 1
  angle deg
:documentation
  ASF file generated by Kaydara
:root
  axis xyz
  order  tx ty tz rx ry rz
  position 0 0 0
  orientation 0 0 0
:bonedata
  begin
    id 1
    name SpineDummy
    direction 0.999998 -0.00179978 1.38929e-006
    length 3.60008
    axis 0 0 0 xyz
  end
  begin
    id 2
    name Spine
    direction 0.964365 0.262802 0.0305839
    length 8.13928
    axis 1.33928 -1.75354 15.2838 xyz
    dof rx ry rz
  end
  begin
    id 3
    name Spine1
    direction 0.811168 0.572065 0.12144
    length 7.14954
    axis 2.2224 -6.9761 35.2157 xyz
    dof rx ry rz
  end
  begin
    id 4
    name Neck
    direction 0 0 0
    length 0
    axis 2.2224 -6.9761 35.2157 xyz
    dof rx ry rz
  end
  begin
    id 5
    name HeadDummy
    direction 0.810939 0.572387 0.121455
    length 3.55534
    axis 2.2224 -6.9761 35.2157 xyz
  end
  begin
    id 6
    name Head
    direction 0.998226 -0.000232542 0.0595419
    length 7.35666
    axis -3.03688 -3.41352 -0.0133467 xyz
    dof rx ry rz
  end
  begin
    id 7
    name R_ClavicleDummy
    direction 0.531669 -0.194489 -0.824319
    length 2.49392
    axis 2.2224 -6.9761 35.2157 xyz
  end
  begin
    id 8
    name R_Clavicle
    direction -0.155119 0.0480802 -0.986725
    length 4.485
    axis -54.2764 80.6538 162.779 xyz
    dof rx ry rz
  end
  begin
    id 9
    name R_UpperArm
    direction -0.955567 0.200068 -0.216484
    length 10.1122
    axis -72.9943 12.5026 168.175 xyz
    dof rx ry rz
  end
  begin
    id 10
    name R_Forearm
    direction -0.61433 0.385743 0.688332
    length 9.39148
    axis -117.015 -43.4982 147.875 xyz
    dof rx ry rz
  end
  begin
    id 11
    name R_Hand
    direction -0.699429 0.0170333 0.714499
    length 3.66324
    axis -45.0303 -36.7097 175.478 xyz
    dof rx ry rz
  end
  begin
    id 12
    name L_ClavicleDummy
    direction 0.40287 -0.36502 0.839319
    length 2.49392
    axis 2.2224 -6.9761 35.2157 xyz
  end
  begin
    id 13
    name L_Clavicle
    direction -0.231271 -0.0726419 0.970174
    length 4.485
    axis 18.4357 -75.9711 -162.563 xyz
    dof rx ry rz
  end
  begin
    id 14
    name L_UpperArm
    direction -0.917494 0.144359 0.370629
    length 10.1122
    axis 56.0417 -21.7544 171.058 xyz
    dof rx ry rz
  end
  begin
    id 15
    name L_Forearm
    direction -0.496786 0.615074 -0.612281
    length 9.39148
    axis 89.8094 37.7546 128.927 xyz
    dof rx ry rz
  end
  begin
    id 16
    name L_Hand
    direction -0.409932 0.64962 -0.640274
    length 3.66324
    axis -0.424369 32.133 128.52 xyz
    dof rx ry rz
  end
  begin
    id 17
    name L_ThighDummy
    direction -1.84081e-006 1.87549e-006 1
    length 3.13049
    axis 0 0 0 xyz
  end
  begin
    id 18
    name L_Thigh
    direction -0.947739 0.307978 0.083308
    length 17.9961
    axis 173.219 -4.77873 161.998 xyz
    dof rx ry rz
  end
  begin
    id 19
    name L_Calf
    direction -0.728814 -0.684427 0.0197583
    length 13.3367
    axis 167.331 -1.13214 -136.799 xyz
    dof rx ry rz
  end
  begin
    id 20
    name L_Foot
    direction -0.9028 0.418719 0.0981191
    length 5.8674
    axis 163.436 11.5135 -155.37 xyz
    dof rx ry rz
  end
  begin
    id 21
    name L_Toe0
    direction -0.35341 0.886259 0.299411
    length 4.75286
    axis 169.316 -17.4222 111.74 xyz
    dof rx ry rz
  end
  begin
    id 22
    name R_ThighDummy
    direction 9.32778e-007 -8.82053e-007 -1
    length 3.13049
    axis 0 0 0 xyz
  end
  begin
    id 23
    name R_Thigh
    direction -0.925064 0.37528 -0.0585023
    length 17.9961
    axis -178.698 3.35385 157.919 xyz
    dof rx ry rz
  end
  begin
    id 24
    name R_Calf
    direction -0.68969 -0.718776 -0.0876886
    length 13.3367
    axis -160.504 5.03065 -133.817 xyz
    dof rx ry rz
  end
  begin
    id 25
    name R_Foot
    direction -0.857405 0.418858 -0.299022
    length 5.8674
    axis -161.328 4.38911 -154.413 xyz
    dof rx ry rz
  end
  begin
    id 26
    name R_Toe0
    direction -0.100745 0.952789 -0.286433
    length 4.75286
    axis 171.683 16.6445 96.0359 xyz
    dof rx ry rz
  end
:hierarchy
  begin
    root SpineDummy L_ThighDummy R_ThighDummy
    SpineDummy Spine
    Spine Spine1
    Spine1 Neck
    Neck HeadDummy R_ClavicleDummy L_ClavicleDummy
    HeadDummy Head
    R_ClavicleDummy R_Clavicle
    R_Clavicle R_UpperArm
    R_UpperArm R_Forearm
    R_Forearm R_Hand
    L_ClavicleDummy L_Clavicle
    L_Clavicle L_UpperArm
    L_UpperArm L_Forearm
    L_Forearm L_Hand
    L_ThighDummy L_Thigh
    L_Thigh L_Calf
    L_Calf L_Foot
    L_Foot L_Toe0
    R_ThighDummy R_Thigh
    R_Thigh R_Calf
    R_Calf R_Foot
    R_Foot R_Toe0
  end

:SAMPLES-PER-SECOND 30
:FULLY-SPECIFIED
:DEGREES
607
root  -15.5994 30.6874 -29.8207 127.357 -9.50821 103.016
Spine  -0.05547 1.81308 6.78596
Spine1  -0.734229 -11.3535 -10.5712
Neck  3.97569e-016 0 -2.38542e-015
Head  -4.12974 -16.5828 -3.82236
R_Clavicle  -0.00253525 -2.80042 -0.304562
R_UpperArm  -4.64024 -5.2156 -9.7661
R_Forearm  -3.57943 11.265 -9.55355
R_Hand  0.907463 8.08494 -4.37492
L_Clavicle  -0.271113 9.86885 -0.0663577
L_UpperArm  10.5096 0.77949 -17.8352
L_Forearm  -1.58751 -25.807 -33.9401
L_Hand  1.08957 8.34068 9.16359
L_Thigh  -24.4199 -5.96869 0.394752
L_Calf  -0.369207 -2.24756 13.4084
L_Foot  4.28587 6.77625 9.67357
L_Toe0  0.505156 0.034446 -6.1361
R_Thigh  3.95588 -7.68828 -1.75643
R_Calf  11.1016 -13.3482 -47.392
R_Foot  1.22156 2.89085 -4.41902
R_Toe0  -1.78853 -0.272788 -17.3235
608
root  -17.7469 31.8805 -29.8374 131.037 -11.3069 96.196
Spine  0.959888 3.27454 3.7069
Spine1  0.281941 -9.1859 -14.6336
Neck  3.97569e-016 0 -2.38542e-015
Head  -7.61275 -16.8145 0.817133
R_Clavicle  -0.0680617 2.04705 -0.158275
R_UpperArm  -8.11675 -4.43327 -14.713
R_Forearm  -0.468744 3.24229 -2.72431
R_Hand  0.926795 9.05249 -5.21554
L_Clavicle  -0.126507 7.71689 -1.24197
L_UpperArm  12.5223 1.60317 -22.3408
L_Forearm  -2.92735 -22.2067 -28.1269
L_Hand  0.970748 7.80706 8.50362
L_Thigh  -13.483 -2.9587 3.78358
L_Calf  -2.04143 -6.21933 24.1201
L_Foot  1.20368 3.60821 1.21156
L_Toe0  0.505156 0.034446 -6.1361
R_Thigh  6.27135 -6.26509 -3.17551
R_Calf  6.80087 -10.9693 -36.9578
R_Foot  1.40069 2.91353 -6.42202
R_Toe0  -1.78853 -0.272788 -17.3235
609
root  -19.7409 32.5244 -29.9058 133.038 -12.3924 91.5528
Spine  1.59563 2.89806 2.2861
Spine1  0.98789 -7.29831 -18.2074
Neck  3.97569e-016 0 -2.38542e-015
Head  -9.68719 -16.3895 2.86489
R_Clavicle  -0.251834 6.18174 -0.577784
R_UpperArm  -8.96153 -3.57849 -18.6022
R_Forearm  1.23082 -4.13815 3.4191
R_Hand  0.82528 8.71228 -5.61547
L_Clavicle  0.267656 3.53951 -3.37366
L_UpperArm  12.027 1.87285 -26.3864
L_Forearm  -4.22418 -18.4047 -22.6029
L_Hand  0.749397 6.91254 7.06957
L_Thigh  -7.48668 -0.78316 5.60792
L_Calf  -2.16768 -5.83048 28.1517
L_Foot  -0.848005 -0.910011 -3.14449
L_Toe0  0.505156 0.034446 -6.1361
R_Thigh  4.38334 -5.54066 -4.97397
R_Calf  5.29578 -8.03043 -25.9664
R_Foot  1.12415 1.38914 -7.20916
R_Toe0  -1.78853 -0.272788 -17.3235
610
root  -21.5009 32.6325 -30.1039 134.004 -12.783 89.9315
Spine  1.07557 1.68446 3.14047
Spine1  0.525369 -6.38518 -20.7636
Neck  3.97569e-016 0 -2.38542e-015
Head  -10.0648 -14.8217 1.77307
R_Clavicle  -0.429424 9.23552 -0.962403
R_UpperArm  -10.1233 -1.88507 -22.6519
R_Forearm  3.62998 -10.0052 8.40099
R_Hand  0.693924 8.08637 -5.9761
L_Clavicle  0.728881 -1.14711 -4.6098
L_UpperArm  10.9688 0.513173 -30.5265
L_Forearm  -6.198 -14.4813 -17.3614
L_Hand  0.483299 5.99188 4.96225
L_Thigh  -7.89521 -0.327957 6.37461
L_Calf  1.86942 -2.72516 22.1156
L_Foot  -0.207936 -0.667567 -0.148181
L_Toe0  0.343629 0.0526678 -6.27916
R_Thigh  0.282248 -6.48229 -8.22165
R_Calf  7.70477 -4.87914 -15.3906
R_Foot  0.230055 -2.22832 -6.57535
R_Toe0  -1.78853 -0.272788 -17.3235
611
root  -23.1009 32.4217 -30.3766 135.489 -12.5406 88.6715
Spine  -0.324019 1.49232 4.12403
Spine1  -1.0446 -5.19337 -21.7682
Neck  3.97569e-016 0 -2.38542e-015
Head  -9.26197 -13.0879 -2.01899
R_Clavicle  -0.281717 10.6945 -0.316273
R_UpperArm  -11.7309 0.371454 -26.6199
R_Forearm  7.40566 -14.2007 12.1094
R_Hand  0.668219 8.02904 -6.11261
L_Clavicle  0.830104 -3.31473 -4.35956
L_UpperArm  12.1316 -2.85789 -34.7063
L_Forearm  -8.42512 -10.2265 -12.0358
L_Hand  0.292689 5.65031 3.15317
L_Thigh  -0.651659 -1.44663 5.79457
L_Calf  2.87589 -1.86979 13.8118
L_Foot  -0.570355 -4.0324 2.61434
L_Toe0  1.79639 -0.0703701 -5.07893
R_Thigh  -4.62692 -6.7631 -11.4168
R_Calf  11.9503 -1.55278 -4.85014
R_Foot  -0.499298 -4.74211 -5.51739
R_Toe0  -2.0536 -0.244738 -17.4804
612
root  -24.7096 31.9631 -30.6783 136.751 -12.3055 86.2117
Spine  -1.34048 2.36963 3.39998
Spine1  -2.38517 -3.60927 -21.2743
Neck  3.97569e-016 0 -2.38542e-015
Head  -8.03539 -12.1769 -6.28109
R_Clavicle  -0.0911446 10.381 0.328763
R_UpperArm  -10.2414 2.23957 -28.0615
R_Forearm  9.78128 -16.3601 14.0901
R_Hand  0.691876 8.29088 -6.1931
L_Clavicle  0.690546 -2.26753 -3.93299
L_UpperArm  15.4516 -7.25805 -38.0138
L_Forearm  -9.74875 -5.92437 -6.89494
L_Hand  0.237845 6.04092 2.53215
L_Thigh  6.79318 -2.53017 5.17453
L_Calf  7.67304 -0.782323 5.59212
L_Foot  -1.11525 -6.50749 3.55994
L_Toe0  8.82035 -1.23274 1.88357
R_Thigh  -10.9044 -5.37819 -12.844
R_Calf  15.1757 1.57268 4.87743
R_Foot  -0.0646324 -2.96301 -5.77102
R_Toe0  0.492031 -0.466148 -16.2416
613
root  -26.3277 31.1317 -30.9096 136.129 -11.6801 83.1847
Spine  -1.43208 3.82566 1.40514
Spine1  -2.74937 -2.39472 -20.0861
Neck  3.97569e-016 0 -2.38542e-015
Head  -6.49401 -11.5711 -8.63943
R_Clavicle  -0.180074 8.96828 -0.072455
R_UpperArm  -7.03877 3.66789 -27.0845
R_Forearm  11.1038 -17.0081 14.696
R_Hand  0.505984 8.22883 -7.5181
L_Clavicle  0.571631 -0.665916 -3.77329
L_UpperArm  18.4126 -11.1185 -40.3671
L_Forearm  -10.3886 -1.50585 -1.75249
L_Hand  0.24803 6.48466 2.54598
L_Thigh  10.1167 -1.48167 2.18597
L_Calf  11.5679 -0.177323 1.12058
L_Foot  -0.779655 -6.81181 6.58049
L_Toe0  12.4165 -3.42414 9.17723
R_Thigh  -16.4147 -3.45025 -13.1684
R_Calf  14.6944 3.88539 12.1586
R_Foot  1.45561 3.79248 -3.80609
R_Toe0  10.7371 -2.0656 -7.65695
614
root  -27.871 29.9533 -30.9991 134.703 -9.70446 79.9836
Spine  -1.56745 5.02889 -0.254765
Spine1  -3.34158 0.590765 -19.3974
Neck  3.97569e-016 0 -2.38542e-015
Head  -4.58441 -10.6225 -9.03427
R_Clavicle  -0.243013 7.21693 -0.44614
R_UpperArm  -7.95906 5.07794 -26.2082
R_Forearm  14.473 -17.0865 14.7695
R_Hand  0.15184 7.62077 -9.73737
L_Clavicle  0.444671 -0.822706 -2.85421
L_UpperArm  19.7262 -13.6268 -42.6407
L_Forearm  -10.4255 3.75685 4.33715
L_Hand  0.203645 6.14467 2.18085
L_Thigh  8.93152 2.68439 -2.64139
L_Calf  7.74215 -0.153066 0.87143
L_Foot  -0.869043 -9.88379 14.5794
L_Toe0  11.1751 -3.90655 11.9508
R_Thigh  -16.6712 -1.1774 -13.6507
R_Calf  9.4771 5.17709 16.3568
R_Foot  3.86187 12.7187 6.19569
R_Toe0  8.27036 -3.00435 1.4895
615
root  -29.3679 28.8409 -30.9548 135.062 -6.51059 76.5815
Spine  -2.81462 4.06013 -0.8042
Spine1  -5.5553 8.68606 -19.1393
Neck  3.97569e-016 0 -2.38542e-015
Head  -3.0374 -9.62085 -10.2119
R_Clavicle  0.0355354 4.82084 0.496427
R_UpperArm  -13.3158 6.33128 -25.9038
R_Forearm  18.5248 -17.1713 14.849
R_Hand  -0.0589505 6.78388 -10.8311
L_Clavicle  0.207606 -1.21274 -1.15829
L_UpperArm  19.997 -14.6868 -44.2943
L_Forearm  -7.81399 9.96467 11.6975
L_Hand  0.104889 4.91966 1.31465
L_Thigh  10.7999 7.22742 -2.98188
L_Calf  -2.35287 0.258965 -2.25629
L_Foot  -2.27036 -14.9032 21.145
L_Toe0  5.77291 -2.04549 12.4374
R_Thigh  -11.8055 2.44836 -14.5306
R_Calf  3.28919 5.90083 18.7811
R_Foot  5.73618 16.554 20.8206
R_Toe0  -1.27647 0.205793 -5.42479
616
root  -30.6207 28.3873 -30.8022 136.172 -3.20987 74.2732
Spine  -4.41861 0.691939 -0.126943
Spine1  -8.23147 19.8978 -17.8479
Neck  3.97569e-016 0 -2.38542e-015
Head  -3.1777 -8.72579 -14.3231
R_Clavicle  0.367802 1.26441 1.89434
R_UpperArm  -16.468 6.6471 -23.1751
R_Forearm  18.8798 -17.7582 15.4343
R_Hand  -0.00347471 6.32094 -9.9731
L_Clavicle  0.0505359 0.768705 -0.560186
L_UpperArm  18.8632 -14.1512 -42.6038
L_Forearm  -2.4838 16.0926 19.4534
L_Hand  0.00751317 3.02872 0.234782
L_Thigh  20.7829 7.91706 3.40628
L_Calf  -9.41103 1.79351 -13.7029
L_Foot  -2.93021 -14.4595 14.2652
L_Toe0  -3.45965 0.757136 16.6105
R_Thigh  -8.0973 6.9221 -16.0428
R_Calf  2.07344 6.81872 21.8606
R_Foot  4.01429 12.8005 28.9372
R_Toe0  -1.64864 -0.220395 -15.8843
617
root  -31.1849 28.5304 -30.707 133.569 -0.240259 73.0335
Spine  -4.51993 0.173069 0.898915
Spine1  -8.38323 26.7801 -14.4402
Neck  3.97569e-016 0 -2.38542e-015
Head  -5.0597 -7.572 -19.4321
R_Clavicle  0.389359 -2.76104 1.98026
R_UpperArm  -14.0003 5.62878 -16.2912
R_Forearm  18.1233 -19.9335 17.5879
R_Hand  0.116981 7.00313 -9.5443
L_Clavicle  0.0232905 4.96737 -1.62487
L_UpperArm  14.8889 -11.6091 -35.7008
L_Forearm  0.221406 21.1652 26.8354
L_Hand  -0.0701331 0.461726 -1.22936
L_Thigh  30.4081 3.94221 9.6457
L_Calf  -8.42224 3.69813 -28.5517
L_Foot  -0.15516 -1.53748 1.12891
L_Toe0  -10.1569 2.9898 8.38261
R_Thigh  -10.7334 10.7059 -17.4462
R_Calf  1.52585 7.30141 23.5953
R_Foot  2.97406 11.1166 28.2593
R_Toe0  -1.74741 -0.259917 -16.9218
618
root  -31.041 29.2137 -30.7041 124.354 0.753106 72.5633
Spine  -2.9457 2.36335 1.78599
Spine1  -6.05201 25.8145 -10.9119
Neck  3.97569e-016 0 -2.38542e-015
Head  -6.60785 -6.03964 -21.1823
R_Clavicle  0.246336 -6.17795 0.930583
R_UpperArm  -1.20084 3.68468 -7.72438
R_Forearm  15.9223 -27.2317 20.3851
R_Hand  -0.0946064 8.65192 -12.3198
L_Clavicle  -0.0470145 9.01986 -3.27254
L_UpperArm  6.03452 -7.29088 -24.7802
L_Forearm  -1.75325 27.1429 33.7024
L_Hand  -0.0952854 -1.59755 -2.95843
L_Thigh  29.9424 -0.906647 12.0106
L_Calf  -3.54495 4.66633 -36.9716
L_Foot  1.53885 9.80072 -3.30637
L_Toe0  -2.07934 -0.078879 -5.45547
R_Thigh  -16.8394 11.7913 -17.6034
R_Calf  -1.31534 7.43848 24.1372
R_Foot  2.32196 9.67221 21.2229
R_Toe0  -1.253 -0.114044 -11.6378
619
root  -30.566 30.3927 -30.7367 111.174 -0.815733 73.7883
Spine  -1.35758 2.09536 3.91649
Spine1  -4.2076 21.3157 -10.8367
Neck  3.97569e-016 0 -2.38542e-015
Head  -5.89491 -4.67653 -18.0552
R_Clavicle  0.183829 -8.87729 0.166459
R_UpperArm  30.2522 2.33372 -0.399391
R_Forearm  0.168979 -41.9676 22.5916
R_Hand  -0.749147 10.2149 -17.5099
L_Clavicle  -0.228614 12.6635 -4.24851
L_UpperArm  -12.7936 -2.70287 -12.2473
L_Forearm  3.40665 38.1211 39.932
L_Hand  -0.0463668 -1.77401 -1.65626
L_Thigh  21.0135 -5.39047 13.9685
L_Calf  -3.20685 4.52197 -35.6599
L_Foot  2.57229 11.187 -0.471547
L_Toe0  0.779396 0.0245326 -6.29401
R_Thigh  -17.8216 8.72978 -14.6487
R_Calf  -7.83993 7.42643 24.0259
R_Foot  2.15306 8.56423 8.69149
R_Toe0  -0.289661 -0.0650754 -2.26125
620
root  -29.939 31.294 -30.7078 98.8066 -2.33228 76.4441
Spine  -1.22702 -0.787957 6.51117
Spine1  -3.78573 17.9898 -12.7007
Neck  3.97569e-016 0 -2.38542e-015
Head  -3.7219 -3.9944 -13.0563
R_Clavicle  0.243374 -11.1966 0.360227
R_UpperArm  41.6633 2.96801 5.5098
R_Forearm  -6.79067 -46.8913 32.1831
R_Hand  -1.33385 12.3177 -21.3648
L_Clavicle  -0.499832 16.64 -4.81553
L_UpperArm  -23.6101 0.510198 0.939769
L_Forearm  14.0744 45.2515 48.3232
L_Hand  0.231019 -0.695591 5.73262
L_Thigh  12.1908 -9.14369 16.7676
L_Calf  -3.56398 3.61367 -27.7896
L_Foot  2.4475 7.85303 1.89369
L_Toe0  0.505156 0.034446 -6.1361
R_Thigh  -10.8398 4.69131 -8.86515
R_Calf  -9.4131 6.07713 19.3709
R_Foot  2.64487 8.33259 -4.50694
R_Toe0  3.90087 -0.834047 2.44446
621
root  -29.2508 31.6602 -30.4379 87.8712 -1.77387 79.824
Spine  -2.27828 -3.67244 8.27552
Spine1  -3.73986 13.9002 -12.6727
Neck  3.97569e-016 0 -2.38542e-015
Head  -2.222 -3.26777 -9.78848
R_Clavicle  0.333723 -12.7596 1.12558
R_UpperArm  43.2728 5.38798 10.5398
R_Forearm  -4.33173 -46.5735 34.7035
R_Hand  -1.34211 14.4441 -21.3609
L_Clavicle  -0.817719 20.6569 -5.29216
L_UpperArm  -21.4913 2.19989 14.1501
L_Forearm  23.339 47.4151 51.6331
L_Hand  1.00928 2.8352 13.7895
L_Thigh  6.74842 -12.5758 18.0848
L_Calf  -1.18015 2.3266 -17.5271
L_Foot  1.81085 6.90945 0.431801
L_Toe0  0.505156 0.034446 -6.1361
R_Thigh  -2.2889 1.7065 -4.15541
R_Calf  2.0847 3.21936 10.1001
R_Foot  1.89865 4.0701 -9.91002
R_Toe0  8.77885 -1.64558 -11.891
